# MagicaVoxel @ Ephtracy

# group
o 

# material
mtllib Enemy02.mtl
usemtl palette

# normals
vn -1 0 0
vn 1 0 0
vn 0 0 1
vn 0 0 -1
vn 0 -1 0
vn 0 1 0

# texcoords
vt 0.306641 0.5
vt 0.478516 0.5
vt 0.845703 0.5
vt 0.958984 0.5
vt 0.994141 0.5

# verts
v -0.3 0.6 0
v -0.3 0.6 -0.5
v -0.3 1.5 0
v -0.3 1.5 -0.5
v -0.2 0.5 0
v -0.2 0.5 -0.5
v -0.2 0.6 0
v -0.2 0.6 -0.5
v -0.2 1 0.1
v -0.2 1 0
v -0.2 1.4 0.1
v -0.2 1.4 0
v -0.1 0.4 0
v -0.1 0.4 -0.5
v -0.1 0.5 0
v -0.1 0.5 -0.5
v -0.1 0.9 0.1
v -0.1 0.9 0
v -0.1 1 0.1
v -0.1 1 0
v 0 0.3 0
v 0 0.3 -0.5
v 0 0.4 0
v 0 0.4 -0.5
v 0 1.1 0.1
v 0 1.1 0
v 0 1.2 0
v 0 1.3 0.1
v 0 1.3 0
v 0.2 1.1 0.1
v 0.2 1.1 0
v 0.2 1.2 0
v 0.2 1.3 0.1
v 0.2 1.3 0
v -0.1 1.1 0.1
v -0.1 1.1 0
v -0.1 1.2 0
v -0.1 1.3 0.1
v -0.1 1.3 0
v 0.1 1.1 0.1
v 0.1 1.1 0
v 0.1 1.2 0
v 0.1 1.3 0.1
v 0.1 1.3 0
v 0.2 0.9 0.1
v 0.2 0.9 0
v 0.2 1 0.1
v 0.2 1 0
v 0.3 0.5 0
v 0.3 0.5 -0.5
v 0.3 0.6 0
v 0.3 0.6 -0.5
v 0.3 1 0.1
v 0.3 1 0
v 0.3 1.4 0.1
v 0.3 1.4 0
v 0.4 0.4 0
v 0.4 0.4 -0.5
v 0.4 0.5 0
v 0.4 0.5 -0.5
v 0.4 0.6 0
v 0.4 0.6 -0.5
v 0.4 1.5 0
v 0.4 1.5 -0.5
v 0.5 0.3 0
v 0.5 0.3 -0.5
v 0.5 0.4 0
v 0.5 0.4 -0.5
v -0.2 1 0.1
v -0.2 1.4 0.1
v -0.1 0.9 0.1
v -0.1 1 0.1
v -0.1 1.1 0.1
v -0.1 1.3 0.1
v 0 1.1 0.1
v 0 1.3 0.1
v 0.1 1.1 0.1
v 0.1 1.3 0.1
v 0.2 0.9 0.1
v 0.2 1 0.1
v 0.2 1.1 0.1
v 0.2 1.3 0.1
v 0.3 1 0.1
v 0.3 1.4 0.1
v -0.3 0.6 0
v -0.3 1.5 0
v -0.2 0.5 0
v -0.2 0.6 0
v -0.2 1 0
v -0.2 1.4 0
v -0.1 0.4 0
v -0.1 0.5 0
v -0.1 0.9 0
v -0.1 1 0
v -0.1 1.1 0
v -0.1 1.2 0
v -0.1 1.3 0
v 0 0.3 0
v 0 0.4 0
v 0 1.1 0
v 0 1.2 0
v 0 1.3 0
v 0.1 1.1 0
v 0.1 1.2 0
v 0.1 1.3 0
v 0.2 0.9 0
v 0.2 1 0
v 0.2 1.1 0
v 0.2 1.2 0
v 0.2 1.3 0
v 0.3 0.5 0
v 0.3 0.6 0
v 0.3 1 0
v 0.3 1.4 0
v 0.4 0.4 0
v 0.4 0.5 0
v 0.4 0.6 0
v 0.4 1.5 0
v 0.5 0.3 0
v 0.5 0.4 0
v -0.3 0.6 -0.5
v -0.3 1.5 -0.5
v -0.2 0.5 -0.5
v -0.2 0.6 -0.5
v -0.1 0.4 -0.5
v -0.1 0.5 -0.5
v 0 0.3 -0.5
v 0 0.4 -0.5
v 0.3 0.5 -0.5
v 0.3 0.6 -0.5
v 0.4 0.4 -0.5
v 0.4 0.5 -0.5
v 0.4 0.6 -0.5
v 0.4 1.5 -0.5
v 0.5 0.3 -0.5
v 0.5 0.4 -0.5
v 0 0.3 0
v 0.5 0.3 0
v 0 0.3 -0.5
v 0.5 0.3 -0.5
v -0.1 0.4 0
v 0 0.4 0
v -0.1 0.4 -0.5
v 0 0.4 -0.5
v -0.2 0.5 0
v -0.1 0.5 0
v -0.2 0.5 -0.5
v -0.1 0.5 -0.5
v -0.3 0.6 0
v -0.2 0.6 0
v 0.3 0.6 0
v 0.4 0.6 0
v -0.3 0.6 -0.5
v -0.2 0.6 -0.5
v 0.3 0.6 -0.5
v 0.4 0.6 -0.5
v -0.1 0.9 0.1
v 0.2 0.9 0.1
v -0.1 0.9 0
v 0.2 0.9 0
v -0.2 1 0.1
v -0.1 1 0.1
v 0.2 1 0.1
v 0.3 1 0.1
v -0.2 1 0
v -0.1 1 0
v 0.2 1 0
v 0.3 1 0
v -0.1 1.3 0.1
v 0 1.3 0.1
v 0.1 1.3 0.1
v 0.2 1.3 0.1
v -0.1 1.3 0
v 0 1.3 0
v 0.1 1.3 0
v 0.2 1.3 0
v 0.4 0.4 0
v 0.5 0.4 0
v 0.4 0.4 -0.5
v 0.5 0.4 -0.5
v 0.3 0.5 0
v 0.4 0.5 0
v 0.3 0.5 -0.5
v 0.4 0.5 -0.5
v -0.1 1.1 0.1
v 0 1.1 0.1
v 0.1 1.1 0.1
v 0.2 1.1 0.1
v -0.1 1.1 0
v 0 1.1 0
v 0.1 1.1 0
v 0.2 1.1 0
v -0.2 1.4 0.1
v 0.3 1.4 0.1
v -0.2 1.4 0
v 0.3 1.4 0
v -0.3 1.5 0
v 0.4 1.5 0
v -0.3 1.5 -0.5
v 0.4 1.5 -0.5

# faces
f 3/2/1 2/2/1 1/2/1
f 4/2/1 2/2/1 3/2/1
f 7/2/1 6/2/1 5/2/1
f 8/2/1 6/2/1 7/2/1
f 11/4/1 10/4/1 9/4/1
f 12/4/1 10/4/1 11/4/1
f 15/2/1 14/2/1 13/2/1
f 16/2/1 14/2/1 15/2/1
f 19/4/1 18/4/1 17/4/1
f 20/4/1 18/4/1 19/4/1
f 23/2/1 22/2/1 21/2/1
f 24/2/1 22/2/1 23/2/1
f 27/4/1 26/4/1 25/4/1
f 28/4/1 27/4/1 25/4/1
f 29/4/1 27/4/1 28/4/1
f 32/4/1 31/4/1 30/4/1
f 33/4/1 32/4/1 30/4/1
f 34/4/1 32/4/1 33/4/1
f 35/4/2 36/4/2 37/4/2
f 35/4/2 37/4/2 38/4/2
f 38/4/2 37/4/2 39/4/2
f 40/4/2 41/4/2 42/4/2
f 40/4/2 42/4/2 43/4/2
f 43/4/2 42/4/2 44/4/2
f 45/4/2 46/4/2 47/4/2
f 47/4/2 46/4/2 48/4/2
f 49/2/2 50/2/2 51/2/2
f 51/2/2 50/2/2 52/2/2
f 53/4/2 54/4/2 55/4/2
f 55/4/2 54/4/2 56/4/2
f 57/2/2 58/2/2 59/2/2
f 59/2/2 58/2/2 60/2/2
f 61/2/2 62/2/2 63/2/2
f 63/2/2 62/2/2 64/2/2
f 65/2/2 66/2/2 67/2/2
f 67/2/2 66/2/2 68/2/2
f 72/4/3 70/4/3 69/4/3
f 73/4/3 70/4/3 72/4/3
f 74/4/3 70/4/3 73/4/3
f 75/4/3 72/4/3 71/4/3
f 75/4/3 73/4/3 72/4/3
f 76/4/3 70/4/3 74/4/3
f 77/4/3 75/4/3 71/4/3
f 77/4/3 76/4/3 75/4/3
f 78/4/3 70/4/3 76/4/3
f 78/4/3 76/4/3 77/4/3
f 79/4/3 77/4/3 71/4/3
f 80/4/3 77/4/3 79/4/3
f 81/4/3 77/4/3 80/4/3
f 82/4/3 70/4/3 78/4/3
f 83/4/3 81/4/3 80/4/3
f 83/4/3 82/4/3 81/4/3
f 84/4/3 70/4/3 82/4/3
f 84/4/3 82/4/3 83/4/3
f 88/2/3 86/2/3 85/2/3
f 89/2/3 86/2/3 88/2/3
f 90/2/3 86/2/3 89/2/3
f 92/2/3 88/2/3 87/2/3
f 92/2/3 89/2/3 88/2/3
f 93/2/3 89/2/3 92/2/3
f 94/2/3 89/2/3 93/2/3
f 99/2/3 92/2/3 91/2/3
f 99/2/3 93/2/3 92/2/3
f 100/3/3 96/3/3 95/3/3
f 101/5/3 97/5/3 96/5/3
f 101/3/3 96/3/3 100/3/3
f 102/5/3 97/5/3 101/5/3
f 106/2/3 99/2/3 98/2/3
f 106/2/3 93/2/3 99/2/3
f 108/3/3 104/3/3 103/3/3
f 109/5/3 105/5/3 104/5/3
f 109/3/3 104/3/3 108/3/3
f 110/5/3 105/5/3 109/5/3
f 111/2/3 107/2/3 106/2/3
f 111/2/3 106/2/3 98/2/3
f 112/2/3 107/2/3 111/2/3
f 113/2/3 107/2/3 112/2/3
f 114/2/3 86/2/3 90/2/3
f 115/2/3 111/2/3 98/2/3
f 116/2/3 111/2/3 115/2/3
f 117/2/3 113/2/3 112/2/3
f 117/2/3 114/2/3 113/2/3
f 118/2/3 86/2/3 114/2/3
f 118/2/3 114/2/3 117/2/3
f 119/2/3 115/2/3 98/2/3
f 120/2/3 115/2/3 119/2/3
f 121/2/4 122/2/4 124/2/4
f 123/2/4 124/2/4 126/2/4
f 125/2/4 126/2/4 128/2/4
f 126/2/4 124/2/4 129/2/4
f 127/2/4 128/2/4 129/2/4
f 128/2/4 126/2/4 129/2/4
f 124/2/4 122/2/4 130/2/4
f 129/2/4 124/2/4 130/2/4
f 127/2/4 129/2/4 131/2/4
f 131/2/4 129/2/4 132/2/4
f 130/2/4 122/2/4 133/2/4
f 133/2/4 122/2/4 134/2/4
f 127/2/4 131/2/4 135/2/4
f 135/2/4 131/2/4 136/2/4
f 139/2/5 138/2/5 137/2/5
f 140/2/5 138/2/5 139/2/5
f 143/2/5 142/2/5 141/2/5
f 144/2/5 142/2/5 143/2/5
f 147/2/5 146/2/5 145/2/5
f 148/2/5 146/2/5 147/2/5
f 153/2/5 150/2/5 149/2/5
f 154/2/5 150/2/5 153/2/5
f 155/2/5 152/2/5 151/2/5
f 156/2/5 152/2/5 155/2/5
f 159/4/5 158/4/5 157/4/5
f 160/4/5 158/4/5 159/4/5
f 165/4/5 162/4/5 161/4/5
f 166/4/5 162/4/5 165/4/5
f 167/4/5 164/4/5 163/4/5
f 168/4/5 164/4/5 167/4/5
f 173/4/5 170/4/5 169/4/5
f 174/4/5 170/4/5 173/4/5
f 175/4/5 172/4/5 171/4/5
f 176/4/5 172/4/5 175/4/5
f 177/2/6 178/2/6 179/2/6
f 179/2/6 178/2/6 180/2/6
f 181/2/6 182/2/6 183/2/6
f 183/2/6 182/2/6 184/2/6
f 185/4/6 186/4/6 189/4/6
f 189/4/6 186/4/6 190/4/6
f 187/4/6 188/4/6 191/4/6
f 191/4/6 188/4/6 192/4/6
f 193/4/6 194/4/6 195/4/6
f 195/4/6 194/4/6 196/4/6
f 197/2/6 198/2/6 199/2/6
f 199/2/6 198/2/6 200/2/6
