# MagicaVoxel @ Ephtracy

# group
o 

# material
mtllib potion.mtl
usemtl palette

# normals
vn -1 0 0
vn 1 0 0
vn 0 0 1
vn 0 0 -1
vn 0 -1 0
vn 0 1 0

# texcoords
vt 0.0605469 0.5
vt 0.107422 0.5
vt 0.251953 0.5
vt 0.275391 0.5
vt 0.337891 0.5

# verts
v -0.8 0 0
v -0.8 0 -0.2
v -0.8 0.1 0.1
v -0.8 0.1 0
v -0.8 0.1 -0.2
v -0.8 0.1 -0.3
v -0.8 0.2 0.2
v -0.8 0.2 0.1
v -0.8 0.2 0
v -0.8 0.2 -0.1
v -0.8 0.2 -0.3
v -0.8 0.2 -0.4
v -0.8 0.3 0.2
v -0.8 0.3 0.1
v -0.8 0.3 0
v -0.8 0.3 -0.1
v -0.8 0.3 -0.3
v -0.8 0.3 -0.4
v -0.8 0.4 0.1
v -0.8 0.4 0
v -0.8 0.4 -0.3
v -0.7 0 0.1
v -0.7 0 0
v -0.7 0 -0.2
v -0.7 0 -0.3
v -0.7 0.1 0.2
v -0.7 0.1 0.1
v -0.7 0.1 0
v -0.7 0.1 -0.2
v -0.7 0.1 -0.3
v -0.7 0.1 -0.4
v -0.7 0.2 0.2
v -0.7 0.2 0.1
v -0.7 0.2 -0.3
v -0.7 0.2 -0.4
v -0.7 0.3 0.2
v -0.7 0.3 0.1
v -0.7 0.3 -0.3
v -0.7 0.3 -0.4
v -0.7 0.4 0.2
v -0.7 0.4 0.1
v -0.7 0.4 0
v -0.7 0.4 -0.3
v -0.7 0.4 -0.4
v -0.7 0.5 0.1
v -0.7 0.5 -0.3
v -0.6 0 0.2
v -0.6 0 0.1
v -0.6 0 -0.3
v -0.6 0 -0.4
v -0.6 0.1 0.2
v -0.6 0.1 0.1
v -0.6 0.1 -0.3
v -0.6 0.1 -0.4
v -0.6 0.5 0
v -0.6 0.5 -0.2
v -0.6 0.7 0
v -0.6 0.7 -0.2
v -0.6 0.8 0
v -0.6 0.8 -0.2
v -0.4 0 0.2
v -0.4 0 0.1
v -0.4 0 -0.3
v -0.4 0 -0.4
v -0.4 0.1 0.2
v -0.4 0.1 0.1
v -0.4 0.1 -0.3
v -0.4 0.1 -0.4
v -0.4 0.5 0
v -0.4 0.5 -0.2
v -0.4 0.7 0
v -0.4 0.7 -0.2
v -0.4 0.8 0
v -0.4 0.8 -0.2
v -0.3 0 0.1
v -0.3 0 0
v -0.3 0 -0.2
v -0.3 0 -0.3
v -0.3 0.1 0.2
v -0.3 0.1 0.1
v -0.3 0.1 0
v -0.3 0.1 -0.2
v -0.3 0.1 -0.3
v -0.3 0.1 -0.4
v -0.3 0.2 0.2
v -0.3 0.2 0.1
v -0.3 0.2 -0.3
v -0.3 0.2 -0.4
v -0.3 0.3 0.2
v -0.3 0.3 0.1
v -0.3 0.3 -0.3
v -0.3 0.3 -0.4
v -0.3 0.4 0.2
v -0.3 0.4 0.1
v -0.3 0.4 -0.2
v -0.3 0.4 -0.3
v -0.3 0.4 -0.4
v -0.3 0.5 0.1
v -0.3 0.5 -0.3
v -0.2 0 0
v -0.2 0 -0.2
v -0.2 0.1 0.1
v -0.2 0.1 0
v -0.2 0.1 -0.2
v -0.2 0.1 -0.3
v -0.2 0.2 0.2
v -0.2 0.2 0.1
v -0.2 0.2 -0.1
v -0.2 0.2 -0.2
v -0.2 0.2 -0.3
v -0.2 0.2 -0.4
v -0.2 0.3 0.2
v -0.2 0.3 0.1
v -0.2 0.3 -0.1
v -0.2 0.3 -0.2
v -0.2 0.3 -0.3
v -0.2 0.3 -0.4
v -0.2 0.4 0.1
v -0.2 0.4 -0.2
v -0.2 0.4 -0.3
v -0.8 0.2 0.2
v -0.8 0.3 0.2
v -0.7 0.1 0.2
v -0.7 0.2 0.2
v -0.7 0.3 0.2
v -0.7 0.4 0.2
v -0.6 0 0.2
v -0.6 0.1 0.2
v -0.5 0.2 0.2
v -0.5 0.3 0.2
v -0.4 0 0.2
v -0.4 0.1 0.2
v -0.4 0.2 0.2
v -0.4 0.3 0.2
v -0.4 0.4 0.2
v -0.3 0.1 0.2
v -0.3 0.2 0.2
v -0.3 0.3 0.2
v -0.3 0.4 0.2
v -0.2 0.2 0.2
v -0.2 0.3 0.2
v -0.8 0.1 0.1
v -0.8 0.2 0.1
v -0.8 0.3 0.1
v -0.8 0.4 0.1
v -0.7 0 0.1
v -0.7 0.1 0.1
v -0.7 0.2 0.1
v -0.7 0.3 0.1
v -0.7 0.4 0.1
v -0.7 0.5 0.1
v -0.6 0 0.1
v -0.6 0.1 0.1
v -0.4 0 0.1
v -0.4 0.1 0.1
v -0.4 0.4 0.1
v -0.3 0 0.1
v -0.3 0.1 0.1
v -0.3 0.2 0.1
v -0.3 0.3 0.1
v -0.3 0.4 0.1
v -0.3 0.5 0.1
v -0.2 0.1 0.1
v -0.2 0.2 0.1
v -0.2 0.3 0.1
v -0.2 0.4 0.1
v -0.8 0 0
v -0.8 0.1 0
v -0.7 0 0
v -0.7 0.1 0
v -0.6 0.5 0
v -0.6 0.7 0
v -0.6 0.8 0
v -0.4 0.5 0
v -0.4 0.7 0
v -0.4 0.8 0
v -0.3 0 0
v -0.3 0.1 0
v -0.2 0 0
v -0.2 0.1 0
v -0.8 0 -0.2
v -0.8 0.1 -0.2
v -0.7 0 -0.2
v -0.7 0.1 -0.2
v -0.6 0.5 -0.2
v -0.6 0.7 -0.2
v -0.6 0.8 -0.2
v -0.4 0.5 -0.2
v -0.4 0.7 -0.2
v -0.4 0.8 -0.2
v -0.3 0 -0.2
v -0.3 0.1 -0.2
v -0.2 0 -0.2
v -0.2 0.1 -0.2
v -0.8 0.1 -0.3
v -0.8 0.2 -0.3
v -0.8 0.3 -0.3
v -0.8 0.4 -0.3
v -0.7 0 -0.3
v -0.7 0.1 -0.3
v -0.7 0.2 -0.3
v -0.7 0.3 -0.3
v -0.7 0.4 -0.3
v -0.7 0.5 -0.3
v -0.6 0 -0.3
v -0.6 0.1 -0.3
v -0.6 0.4 -0.3
v -0.4 0 -0.3
v -0.4 0.1 -0.3
v -0.3 0 -0.3
v -0.3 0.1 -0.3
v -0.3 0.2 -0.3
v -0.3 0.3 -0.3
v -0.3 0.4 -0.3
v -0.3 0.5 -0.3
v -0.2 0.1 -0.3
v -0.2 0.2 -0.3
v -0.2 0.3 -0.3
v -0.2 0.4 -0.3
v -0.8 0.2 -0.4
v -0.8 0.3 -0.4
v -0.7 0.1 -0.4
v -0.7 0.2 -0.4
v -0.7 0.3 -0.4
v -0.7 0.4 -0.4
v -0.6 0 -0.4
v -0.6 0.1 -0.4
v -0.6 0.2 -0.4
v -0.6 0.3 -0.4
v -0.6 0.4 -0.4
v -0.5 0.2 -0.4
v -0.5 0.3 -0.4
v -0.4 0 -0.4
v -0.4 0.1 -0.4
v -0.3 0.1 -0.4
v -0.3 0.2 -0.4
v -0.3 0.3 -0.4
v -0.3 0.4 -0.4
v -0.2 0.2 -0.4
v -0.2 0.3 -0.4
v -0.6 0 0.2
v -0.4 0 0.2
v -0.7 0 0.1
v -0.6 0 0.1
v -0.4 0 0.1
v -0.3 0 0.1
v -0.8 0 0
v -0.7 0 0
v -0.3 0 0
v -0.2 0 0
v -0.8 0 -0.2
v -0.7 0 -0.2
v -0.3 0 -0.2
v -0.2 0 -0.2
v -0.7 0 -0.3
v -0.6 0 -0.3
v -0.4 0 -0.3
v -0.3 0 -0.3
v -0.6 0 -0.4
v -0.4 0 -0.4
v -0.7 0.1 0.2
v -0.6 0.1 0.2
v -0.4 0.1 0.2
v -0.3 0.1 0.2
v -0.8 0.1 0.1
v -0.7 0.1 0.1
v -0.6 0.1 0.1
v -0.4 0.1 0.1
v -0.3 0.1 0.1
v -0.2 0.1 0.1
v -0.8 0.1 0
v -0.7 0.1 0
v -0.3 0.1 0
v -0.2 0.1 0
v -0.8 0.1 -0.2
v -0.7 0.1 -0.2
v -0.3 0.1 -0.2
v -0.2 0.1 -0.2
v -0.8 0.1 -0.3
v -0.7 0.1 -0.3
v -0.6 0.1 -0.3
v -0.4 0.1 -0.3
v -0.3 0.1 -0.3
v -0.2 0.1 -0.3
v -0.7 0.1 -0.4
v -0.6 0.1 -0.4
v -0.4 0.1 -0.4
v -0.3 0.1 -0.4
v -0.8 0.2 0.2
v -0.7 0.2 0.2
v -0.3 0.2 0.2
v -0.2 0.2 0.2
v -0.8 0.2 0.1
v -0.7 0.2 0.1
v -0.3 0.2 0.1
v -0.2 0.2 0.1
v -0.8 0.2 -0.3
v -0.7 0.2 -0.3
v -0.3 0.2 -0.3
v -0.2 0.2 -0.3
v -0.8 0.2 -0.4
v -0.7 0.2 -0.4
v -0.3 0.2 -0.4
v -0.2 0.2 -0.4
v -0.8 0.3 0.2
v -0.7 0.3 0.2
v -0.3 0.3 0.2
v -0.2 0.3 0.2
v -0.8 0.3 0.1
v -0.7 0.3 0.1
v -0.3 0.3 0.1
v -0.2 0.3 0.1
v -0.8 0.3 -0.3
v -0.7 0.3 -0.3
v -0.3 0.3 -0.3
v -0.2 0.3 -0.3
v -0.8 0.3 -0.4
v -0.7 0.3 -0.4
v -0.3 0.3 -0.4
v -0.2 0.3 -0.4
v -0.7 0.4 0.2
v -0.4 0.4 0.2
v -0.3 0.4 0.2
v -0.8 0.4 0.1
v -0.7 0.4 0.1
v -0.4 0.4 0.1
v -0.3 0.4 0.1
v -0.2 0.4 0.1
v -0.8 0.4 0
v -0.7 0.4 0
v -0.3 0.4 -0.2
v -0.2 0.4 -0.2
v -0.8 0.4 -0.3
v -0.7 0.4 -0.3
v -0.6 0.4 -0.3
v -0.3 0.4 -0.3
v -0.2 0.4 -0.3
v -0.7 0.4 -0.4
v -0.6 0.4 -0.4
v -0.3 0.4 -0.4
v -0.7 0.5 0.1
v -0.3 0.5 0.1
v -0.6 0.5 0
v -0.4 0.5 0
v -0.6 0.5 -0.2
v -0.4 0.5 -0.2
v -0.7 0.5 -0.3
v -0.3 0.5 -0.3
v -0.6 0.8 0
v -0.4 0.8 0
v -0.6 0.8 -0.2
v -0.4 0.8 -0.2

# faces
f 4/5/1 2/5/1 1/5/1
f 5/5/1 2/5/1 4/5/1
f 8/3/1 4/3/1 3/3/1
f 8/3/1 6/3/1 5/3/1
f 8/3/1 5/3/1 4/3/1
f 9/3/1 6/3/1 8/3/1
f 10/3/1 6/3/1 9/3/1
f 11/3/1 6/3/1 10/3/1
f 13/3/1 8/3/1 7/3/1
f 14/2/1 9/2/1 8/2/1
f 14/3/1 8/3/1 13/3/1
f 15/4/1 10/4/1 9/4/1
f 15/2/1 9/2/1 14/2/1
f 16/3/1 12/3/1 11/3/1
f 16/4/1 10/4/1 15/4/1
f 16/3/1 11/3/1 10/3/1
f 17/3/1 12/3/1 16/3/1
f 18/3/1 12/3/1 17/3/1
f 19/4/1 15/4/1 14/4/1
f 20/3/1 17/3/1 16/3/1
f 20/4/1 15/4/1 19/4/1
f 20/3/1 16/3/1 15/3/1
f 21/3/1 17/3/1 20/3/1
f 27/5/1 23/5/1 22/5/1
f 28/5/1 23/5/1 27/5/1
f 29/5/1 25/5/1 24/5/1
f 30/5/1 25/5/1 29/5/1
f 32/3/1 27/3/1 26/3/1
f 33/3/1 27/3/1 32/3/1
f 34/3/1 31/3/1 30/3/1
f 35/3/1 31/3/1 34/3/1
f 40/3/1 37/3/1 36/3/1
f 41/3/1 37/3/1 40/3/1
f 43/4/1 39/4/1 38/4/1
f 44/4/1 39/4/1 43/4/1
f 45/3/1 42/3/1 41/3/1
f 45/3/1 43/3/1 42/3/1
f 46/3/1 43/3/1 45/3/1
f 51/5/1 48/5/1 47/5/1
f 52/5/1 48/5/1 51/5/1
f 53/5/1 50/5/1 49/5/1
f 54/5/1 50/5/1 53/5/1
f 57/5/1 56/5/1 55/5/1
f 58/5/1 56/5/1 57/5/1
f 59/1/1 58/1/1 57/1/1
f 60/1/1 58/1/1 59/1/1
f 61/5/2 62/5/2 65/5/2
f 65/5/2 62/5/2 66/5/2
f 63/5/2 64/5/2 67/5/2
f 67/5/2 64/5/2 68/5/2
f 69/5/2 70/5/2 71/5/2
f 71/5/2 70/5/2 72/5/2
f 71/1/2 72/1/2 73/1/2
f 73/1/2 72/1/2 74/1/2
f 75/5/2 76/5/2 80/5/2
f 80/5/2 76/5/2 81/5/2
f 77/5/2 78/5/2 82/5/2
f 82/5/2 78/5/2 83/5/2
f 79/3/2 80/3/2 85/3/2
f 85/3/2 80/3/2 86/3/2
f 83/3/2 84/3/2 87/3/2
f 87/3/2 84/3/2 88/3/2
f 89/4/2 90/4/2 93/4/2
f 93/4/2 90/4/2 94/4/2
f 91/3/2 92/3/2 96/3/2
f 96/3/2 92/3/2 97/3/2
f 94/3/2 95/3/2 98/3/2
f 95/3/2 96/3/2 98/3/2
f 98/3/2 96/3/2 99/3/2
f 100/5/2 101/5/2 103/5/2
f 103/5/2 101/5/2 104/5/2
f 102/3/2 103/3/2 107/3/2
f 104/3/2 105/3/2 107/3/2
f 103/3/2 104/3/2 107/3/2
f 107/3/2 105/3/2 108/3/2
f 108/3/2 105/3/2 109/3/2
f 109/3/2 105/3/2 110/3/2
f 106/3/2 107/3/2 112/3/2
f 107/3/2 108/3/2 112/3/2
f 112/3/2 108/3/2 113/3/2
f 108/4/2 109/4/2 114/4/2
f 113/3/2 108/3/2 114/3/2
f 109/2/2 110/2/2 115/2/2
f 114/4/2 109/4/2 115/4/2
f 110/3/2 111/3/2 116/3/2
f 115/2/2 110/2/2 116/2/2
f 116/3/2 111/3/2 117/3/2
f 114/3/2 115/3/2 118/3/2
f 113/3/2 114/3/2 118/3/2
f 115/4/2 116/4/2 119/4/2
f 118/3/2 115/3/2 119/3/2
f 119/4/2 116/4/2 120/4/2
f 124/3/3 122/3/3 121/3/3
f 125/3/3 122/3/3 124/3/3
f 128/3/3 124/3/3 123/3/3
f 128/3/3 126/3/3 125/3/3
f 128/3/3 125/3/3 124/3/3
f 129/3/3 126/3/3 128/3/3
f 130/3/3 126/3/3 129/3/3
f 131/5/3 128/5/3 127/5/3
f 132/3/3 129/3/3 128/3/3
f 132/5/3 128/5/3 131/5/3
f 133/4/3 130/4/3 129/4/3
f 133/3/3 129/3/3 132/3/3
f 134/3/3 126/3/3 130/3/3
f 134/4/3 130/4/3 133/4/3
f 135/3/3 126/3/3 134/3/3
f 136/3/3 133/3/3 132/3/3
f 137/2/3 134/2/3 133/2/3
f 137/3/3 133/3/3 136/3/3
f 138/4/3 135/4/3 134/4/3
f 138/2/3 134/2/3 137/2/3
f 139/4/3 135/4/3 138/4/3
f 140/3/3 138/3/3 137/3/3
f 141/3/3 138/3/3 140/3/3
f 147/3/3 143/3/3 142/3/3
f 148/3/3 143/3/3 147/3/3
f 149/4/3 145/4/3 144/4/3
f 150/4/3 145/4/3 149/4/3
f 152/5/3 147/5/3 146/5/3
f 153/5/3 147/5/3 152/5/3
f 156/3/3 151/3/3 150/3/3
f 157/5/3 155/5/3 154/5/3
f 158/5/3 155/5/3 157/5/3
f 161/3/3 151/3/3 156/3/3
f 162/3/3 151/3/3 161/3/3
f 163/3/3 159/3/3 158/3/3
f 164/3/3 159/3/3 163/3/3
f 165/3/3 161/3/3 160/3/3
f 166/3/3 161/3/3 165/3/3
f 169/5/3 168/5/3 167/5/3
f 170/5/3 168/5/3 169/5/3
f 174/5/3 172/5/3 171/5/3
f 175/1/3 173/1/3 172/1/3
f 175/5/3 172/5/3 174/5/3
f 176/1/3 173/1/3 175/1/3
f 179/5/3 178/5/3 177/5/3
f 180/5/3 178/5/3 179/5/3
f 181/5/4 182/5/4 183/5/4
f 183/5/4 182/5/4 184/5/4
f 185/5/4 186/5/4 188/5/4
f 186/1/4 187/1/4 189/1/4
f 188/5/4 186/5/4 189/5/4
f 189/1/4 187/1/4 190/1/4
f 191/5/4 192/5/4 193/5/4
f 193/5/4 192/5/4 194/5/4
f 195/3/4 196/3/4 200/3/4
f 200/3/4 196/3/4 201/3/4
f 197/3/4 198/3/4 202/3/4
f 202/3/4 198/3/4 203/3/4
f 199/5/4 200/5/4 205/5/4
f 205/5/4 200/5/4 206/5/4
f 203/3/4 204/3/4 207/3/4
f 208/5/4 209/5/4 210/5/4
f 210/5/4 209/5/4 211/5/4
f 207/3/4 204/3/4 214/3/4
f 214/3/4 204/3/4 215/3/4
f 211/3/4 212/3/4 216/3/4
f 216/3/4 212/3/4 217/3/4
f 213/4/4 214/4/4 218/4/4
f 218/4/4 214/4/4 219/4/4
f 220/3/4 221/3/4 223/3/4
f 223/3/4 221/3/4 224/3/4
f 222/3/4 223/3/4 227/3/4
f 223/2/4 224/2/4 228/2/4
f 227/3/4 223/3/4 228/3/4
f 224/4/4 225/4/4 229/4/4
f 228/2/4 224/2/4 229/2/4
f 229/4/4 225/4/4 230/4/4
f 227/3/4 228/3/4 231/3/4
f 228/4/4 229/4/4 231/4/4
f 229/3/4 230/3/4 232/3/4
f 231/4/4 229/4/4 232/4/4
f 226/5/4 227/5/4 233/5/4
f 227/3/4 231/3/4 234/3/4
f 233/5/4 227/5/4 234/5/4
f 231/3/4 232/3/4 234/3/4
f 234/3/4 232/3/4 235/3/4
f 235/3/4 232/3/4 236/3/4
f 232/3/4 230/3/4 237/3/4
f 236/3/4 232/3/4 237/3/4
f 237/3/4 230/3/4 238/3/4
f 236/3/4 237/3/4 239/3/4
f 239/3/4 237/3/4 240/3/4
f 244/5/5 242/5/5 241/5/5
f 245/5/5 242/5/5 244/5/5
f 248/5/5 244/5/5 243/5/5
f 248/5/5 246/5/5 245/5/5
f 248/5/5 245/5/5 244/5/5
f 249/5/5 246/5/5 248/5/5
f 251/5/5 248/5/5 247/5/5
f 251/5/5 250/5/5 249/5/5
f 251/5/5 249/5/5 248/5/5
f 252/5/5 250/5/5 251/5/5
f 253/5/5 250/5/5 252/5/5
f 254/5/5 250/5/5 253/5/5
f 255/5/5 253/5/5 252/5/5
f 256/5/5 253/5/5 255/5/5
f 257/5/5 253/5/5 256/5/5
f 258/5/5 253/5/5 257/5/5
f 259/5/5 257/5/5 256/5/5
f 260/5/5 257/5/5 259/5/5
f 266/3/5 262/3/5 261/3/5
f 267/3/5 262/3/5 266/3/5
f 268/3/5 264/3/5 263/3/5
f 269/3/5 264/3/5 268/3/5
f 271/3/5 266/3/5 265/3/5
f 272/3/5 266/3/5 271/3/5
f 273/3/5 270/3/5 269/3/5
f 274/3/5 270/3/5 273/3/5
f 279/3/5 276/3/5 275/3/5
f 280/3/5 276/3/5 279/3/5
f 283/3/5 278/3/5 277/3/5
f 284/3/5 278/3/5 283/3/5
f 285/3/5 281/3/5 280/3/5
f 286/3/5 281/3/5 285/3/5
f 287/3/5 283/3/5 282/3/5
f 288/3/5 283/3/5 287/3/5
f 293/3/5 290/3/5 289/3/5
f 294/3/5 290/3/5 293/3/5
f 295/3/5 292/3/5 291/3/5
f 296/3/5 292/3/5 295/3/5
f 301/3/5 298/3/5 297/3/5
f 302/3/5 298/3/5 301/3/5
f 303/3/5 300/3/5 299/3/5
f 304/3/5 300/3/5 303/3/5
f 305/3/6 306/3/6 309/3/6
f 309/3/6 306/3/6 310/3/6
f 307/3/6 308/3/6 311/3/6
f 311/3/6 308/3/6 312/3/6
f 313/3/6 314/3/6 317/3/6
f 317/3/6 314/3/6 318/3/6
f 315/3/6 316/3/6 319/3/6
f 319/3/6 316/3/6 320/3/6
f 321/3/6 322/3/6 325/3/6
f 322/4/6 323/4/6 326/4/6
f 325/3/6 322/3/6 326/3/6
f 326/4/6 323/4/6 327/4/6
f 324/4/6 325/4/6 329/4/6
f 329/4/6 325/4/6 330/4/6
f 327/3/6 328/3/6 331/3/6
f 331/3/6 328/3/6 332/3/6
f 329/3/6 330/3/6 333/3/6
f 333/3/6 330/3/6 334/3/6
f 331/4/6 332/4/6 336/4/6
f 336/4/6 332/4/6 337/4/6
f 334/4/6 335/4/6 338/4/6
f 335/3/6 336/3/6 339/3/6
f 338/4/6 335/4/6 339/4/6
f 339/3/6 336/3/6 340/3/6
f 341/3/6 342/3/6 343/3/6
f 343/3/6 342/3/6 344/3/6
f 341/3/6 343/3/6 345/3/6
f 344/3/6 342/3/6 346/3/6
f 341/3/6 345/3/6 347/3/6
f 345/3/6 346/3/6 347/3/6
f 346/3/6 342/3/6 348/3/6
f 347/3/6 346/3/6 348/3/6
f 349/1/6 350/1/6 351/1/6
f 351/1/6 350/1/6 352/1/6
